<svg width="529" height="96" viewBox="0 0 529 96" fill="none" xmlns="http://www.w3.org/2000/svg">
<path d="M97.6167 48.8746V86.6182H98.0945C109.088 86.6182 118 85.7557 118 75.7723V55.3418C117.713 51.8496 116.79 48.5765 114.178 44.9562C110.944 40.472 108.002 38.4967 102.872 35.8457C96.6046 32.6074 92.2443 31.6905 85.0364 31.5073C84.1661 31.4852 82.807 31.5073 82.807 31.5073C75.5911 31.7148 71.0361 32.6524 65.1309 36.4241C64.6029 36.7613 64.0972 37.0759 63.6127 37.3773C63.2317 37.6142 62.8639 37.843 62.5087 38.0683C60.4289 39.387 58.7814 40.5836 57.4643 42.5809C56.3448 41.0602 55.0786 39.6844 53.6657 38.4533C53.2036 38.0507 52.7257 37.6635 52.2321 37.2918C47.8794 33.9175 42.0936 32.2304 34.8745 32.2304H32.4858C22.0819 32.2304 14.0666 35.5082 8.43995 42.064C2.81332 48.5233 0 57.8266 0 69.9739V75.7723C0 85.7557 8.912 86.6182 19.9055 86.6182H20.3833V68.5278C20.3833 68.5247 20.3833 68.5215 20.3833 68.5183V52.7791C20.3833 48.248 21.6572 44.9701 24.2051 42.9456C26.753 40.921 30.2564 39.9087 34.7153 39.9087C38.9618 39.9087 42.359 40.921 44.9069 42.9456C47.4548 44.9701 48.7287 48.248 48.7287 52.7791L48.7287 86.6182H68.475V48.8746C68.475 44.4399 69.749 41.1138 72.2969 38.8964C74.7386 36.6791 78.2951 35.5704 82.9663 35.5704C87.6374 35.5704 91.247 36.6791 93.7949 38.8964C96.3428 41.1138 97.6167 44.4399 97.6167 48.8746Z" fill="#4F9CF9"/>
<path d="M70.8694 13.7802C70.8694 21.3907 64.6998 27.5603 57.0892 27.5603C49.4787 27.5603 43.3091 21.3907 43.3091 13.7802C43.3091 6.16959 49.4787 0 57.0892 0C64.6998 0 70.8694 6.16959 70.8694 13.7802Z" fill="#4F9CF9"/>
<path d="M156.597 76V11.6H169.993V35.8129H170.402C170.989 34.5131 171.838 33.1924 172.949 31.8508C174.081 30.4881 175.548 29.3561 177.351 28.4547C179.175 27.5323 181.439 27.0711 184.143 27.0711C187.665 27.0711 190.915 27.9935 193.891 29.8383C196.868 31.6621 199.248 34.4188 201.029 38.1084C202.811 41.777 203.702 46.3785 203.702 51.9129C203.702 57.3005 202.832 61.8496 201.092 65.5602C199.373 69.2497 197.025 72.0484 194.049 73.9561C191.093 75.8428 187.781 76.7861 184.112 76.7861C181.512 76.7861 179.301 76.3564 177.477 75.4969C175.674 74.6374 174.196 73.5577 173.043 72.258C171.89 70.9373 171.01 69.6061 170.402 68.2645H169.804V76H156.597ZM169.71 51.85C169.71 54.722 170.108 57.2271 170.905 59.3654C171.701 61.5037 172.854 63.1703 174.364 64.3652C175.873 65.5392 177.708 66.1262 179.867 66.1262C182.047 66.1262 183.892 65.5287 185.401 64.3338C186.911 63.1179 188.053 61.4408 188.829 59.3025C189.625 57.1433 190.024 54.6591 190.024 51.85C190.024 49.0618 189.636 46.6091 188.86 44.4918C188.085 42.3745 186.942 40.7184 185.433 39.5234C183.923 38.3285 182.068 37.731 179.867 37.731C177.687 37.731 175.842 38.3075 174.332 39.4605C172.844 40.6135 171.701 42.2487 170.905 44.366C170.108 46.4833 169.71 48.978 169.71 51.85Z" fill="#4F9CF9"/>
<path d="M234.652 76.9434C229.684 76.9434 225.407 75.9371 221.823 73.9246C218.259 71.8911 215.513 69.0191 213.584 65.3086C211.655 61.5771 210.691 57.1643 210.691 52.0701C210.691 47.1018 211.655 42.7413 213.584 38.9889C215.513 35.2364 218.227 32.312 221.728 30.2156C225.25 28.1193 229.38 27.0711 234.118 27.0711C237.304 27.0711 240.271 27.5847 243.017 28.6119C245.784 29.6182 248.195 31.138 250.249 33.1715C252.325 35.2049 253.939 37.7625 255.092 40.8441C256.245 43.9048 256.821 47.4896 256.821 51.5984V55.2775H216.037V46.976H244.212C244.212 45.0473 243.793 43.3388 242.954 41.8504C242.115 40.362 240.952 39.1985 239.464 38.36C237.996 37.5005 236.288 37.0707 234.338 37.0707C232.304 37.0707 230.502 37.5424 228.929 38.4857C227.378 39.4081 226.162 40.6555 225.282 42.2277C224.401 43.779 223.951 45.5085 223.93 47.4162V55.309C223.93 57.6988 224.37 59.7637 225.25 61.5037C226.152 63.2437 227.42 64.5854 229.055 65.5287C230.69 66.4721 232.629 66.9437 234.873 66.9437C236.361 66.9437 237.724 66.7341 238.96 66.3148C240.197 65.8956 241.256 65.2667 242.136 64.4281C243.017 63.5896 243.688 62.5624 244.149 61.3465L256.538 62.1641C255.909 65.1409 254.62 67.7404 252.671 69.9625C250.742 72.1637 248.247 73.8827 245.187 75.1195C242.147 76.3354 238.635 76.9434 234.652 76.9434Z" fill="#4F9CF9"/>
<path d="M278.959 11.6V76H265.563V11.6H278.959Z" fill="#4F9CF9"/>
<path d="M303.463 76.9119C300.381 76.9119 297.635 76.3773 295.224 75.3082C292.813 74.2181 290.905 72.6144 289.501 70.4971C288.117 68.3588 287.426 65.6964 287.426 62.51C287.426 59.8266 287.918 57.573 288.903 55.7492C289.889 53.9254 291.23 52.4579 292.928 51.3469C294.626 50.2358 296.555 49.3973 298.714 48.8312C300.895 48.2652 303.18 47.8669 305.569 47.6363C308.379 47.3428 310.643 47.0703 312.362 46.8187C314.081 46.5462 315.328 46.1479 316.104 45.6238C316.879 45.0997 317.267 44.3241 317.267 43.2969V43.1082C317.267 41.1167 316.638 39.5758 315.38 38.4857C314.144 37.3956 312.383 36.8506 310.098 36.8506C307.687 36.8506 305.769 37.3852 304.343 38.4543C302.918 39.5025 301.974 40.8232 301.513 42.4164L289.124 41.4102C289.752 38.4753 290.989 35.9387 292.834 33.8004C294.679 31.6411 297.058 29.985 299.972 28.832C302.907 27.6581 306.303 27.0711 310.16 27.0711C312.844 27.0711 315.412 27.3855 317.865 28.0144C320.338 28.6434 322.529 29.6182 324.437 30.9389C326.365 32.2596 327.885 33.9576 328.996 36.033C330.107 38.0874 330.663 40.5506 330.663 43.4226V76H317.959V69.3021H317.582C316.806 70.8115 315.768 72.1427 314.468 73.2957C313.169 74.4277 311.607 75.3187 309.783 75.9686C307.959 76.5975 305.852 76.9119 303.463 76.9119ZM307.299 67.667C309.27 67.667 311.009 67.2792 312.519 66.5035C314.028 65.7069 315.213 64.6378 316.072 63.2961C316.932 61.9544 317.361 60.4346 317.361 58.7365V53.6109C316.942 53.8835 316.366 54.135 315.632 54.3656C314.919 54.5753 314.112 54.7744 313.211 54.9631C312.309 55.1308 311.408 55.288 310.506 55.4348C309.605 55.5605 308.787 55.6758 308.054 55.7807C306.481 56.0113 305.108 56.3781 303.934 56.8812C302.76 57.3844 301.848 58.0657 301.199 58.9252C300.549 59.7637 300.224 60.8119 300.224 62.0697C300.224 63.8936 300.884 65.2876 302.205 66.2519C303.546 67.1953 305.245 67.667 307.299 67.667Z" fill="#4F9CF9"/>
<path d="M341.055 76V27.7H354.042V36.1273H354.546C355.426 33.1296 356.904 30.8655 358.979 29.3352C361.055 27.7838 363.445 27.0082 366.149 27.0082C366.82 27.0082 367.543 27.0501 368.319 27.134C369.094 27.2178 369.776 27.3331 370.363 27.4799V39.3662C369.734 39.1775 368.864 39.0098 367.753 38.8631C366.642 38.7163 365.625 38.643 364.702 38.643C362.732 38.643 360.971 39.0727 359.42 39.9322C357.889 40.7708 356.673 41.9447 355.772 43.4541C354.891 44.9635 354.451 46.7034 354.451 48.674V76H341.055Z" fill="#4F9CF9"/>
<path d="M397.052 76.9434C392.083 76.9434 387.807 75.9371 384.222 73.9246C380.658 71.8911 377.912 69.0191 375.983 65.3086C374.055 61.5771 373.09 57.1643 373.09 52.0701C373.09 47.1018 374.055 42.7413 375.983 38.9889C377.912 35.2364 380.627 32.312 384.128 30.2156C387.65 28.1193 391.779 27.0711 396.517 27.0711C399.704 27.0711 402.67 27.5847 405.416 28.6119C408.183 29.6182 410.594 31.138 412.649 33.1715C414.724 35.2049 416.338 37.7625 417.491 40.8441C418.644 43.9048 419.221 47.4896 419.221 51.5984V55.2775H378.436V46.976H406.611C406.611 45.0473 406.192 43.3388 405.353 41.8504C404.515 40.362 403.351 39.1985 401.863 38.36C400.395 37.5005 398.687 37.0707 396.737 37.0707C394.704 37.0707 392.901 37.5424 391.329 38.4857C389.777 39.4081 388.561 40.6555 387.681 42.2277C386.801 43.779 386.35 45.5085 386.329 47.4162V55.309C386.329 57.6988 386.769 59.7637 387.65 61.5037C388.551 63.2437 389.819 64.5854 391.454 65.5287C393.09 66.4721 395.029 66.9437 397.272 66.9437C398.76 66.9437 400.123 66.7341 401.36 66.3148C402.597 65.8956 403.655 65.2667 404.536 64.4281C405.416 63.5896 406.087 62.5624 406.548 61.3465L418.938 62.1641C418.309 65.1409 417.02 67.7404 415.07 69.9625C413.141 72.1637 410.647 73.8827 407.586 75.1195C404.546 76.3354 401.035 76.9434 397.052 76.9434Z" fill="#4F9CF9"/>
<path d="M441.358 48.0766V76H427.962V27.7H440.729V36.2217H441.295C442.364 33.4126 444.157 31.1904 446.672 29.5553C449.188 27.8991 452.238 27.0711 455.823 27.0711C459.177 27.0711 462.102 27.8048 464.596 29.2723C467.091 30.7397 469.03 32.8361 470.414 35.5613C471.797 38.2656 472.489 41.494 472.489 45.2465V76H459.093V47.6363C459.114 44.6805 458.36 42.3745 456.829 40.7184C455.299 39.0413 453.192 38.2027 450.509 38.2027C448.706 38.2027 447.113 38.5906 445.729 39.3662C444.366 40.1419 443.297 41.2739 442.522 42.7623C441.767 44.2297 441.379 46.0012 441.358 48.0766Z" fill="#4F9CF9"/>
<path d="M504.807 95.1188C500.467 95.1188 496.746 94.5213 493.644 93.3264C490.562 92.1524 488.109 90.5487 486.286 88.5152C484.462 86.4818 483.277 84.1967 482.732 81.6602L495.122 79.9936C495.499 80.9579 496.097 81.8593 496.914 82.6978C497.732 83.5364 498.811 84.2072 500.153 84.7104C501.516 85.2344 503.172 85.4965 505.121 85.4965C508.035 85.4965 510.436 84.7837 512.322 83.3582C514.23 81.9536 515.184 79.5952 515.184 76.283V67.4469H514.618C514.031 68.7885 513.15 70.0568 511.976 71.2518C510.803 72.4467 509.293 73.4215 507.448 74.1762C505.604 74.9309 503.402 75.3082 500.845 75.3082C497.218 75.3082 493.916 74.4697 490.94 72.7926C487.984 71.0945 485.625 68.5055 483.864 65.0256C482.124 61.5247 481.254 57.1014 481.254 51.7557C481.254 46.2842 482.145 41.7141 483.927 38.0455C485.709 34.3769 488.078 31.6307 491.034 29.8068C494.011 27.983 497.271 27.0711 500.813 27.0711C503.518 27.0711 505.782 27.5323 507.606 28.4547C509.429 29.3561 510.897 30.4881 512.008 31.8508C513.14 33.1924 514.01 34.5131 514.618 35.8129H515.121V27.7H528.422V76.4717C528.422 80.5805 527.416 84.0186 525.404 86.7857C523.391 89.5529 520.603 91.6283 517.039 93.0119C513.496 94.4165 509.419 95.1188 504.807 95.1188ZM505.09 65.2457C507.249 65.2457 509.073 64.7111 510.561 63.642C512.071 62.5519 513.224 61.0006 514.02 58.9881C514.838 56.9546 515.247 54.5228 515.247 51.6928C515.247 48.8627 514.849 46.41 514.052 44.3346C513.255 42.2382 512.102 40.6135 510.593 39.4605C509.083 38.3075 507.249 37.731 505.09 37.731C502.889 37.731 501.034 38.3285 499.524 39.5234C498.015 40.6974 496.872 42.3325 496.097 44.4289C495.321 46.5253 494.933 48.9465 494.933 51.6928C494.933 54.4809 495.321 56.8917 496.097 58.9252C496.893 60.9377 498.036 62.4995 499.524 63.6105C501.034 64.7006 502.889 65.2457 505.09 65.2457Z" fill="#4F9CF9"/>
</svg>
