<svg width="683" height="683" viewBox="0 0 683 683" fill="none" xmlns="http://www.w3.org/2000/svg">
<path d="M80.6665 1.46663C45.1998 7.46663 14.9332 34.8 3.73317 70.6666L0.666504 80.6666V341.333V602L3.73317 612C13.5998 643.867 36.9332 667.467 69.0665 678.533L79.3332 682H341.333H603.333L613.6 678.533C645.733 667.467 669.067 643.867 678.933 612L682 602V341.333V80.6666L678.933 70.6666C669.067 38.8 645.733 15.2 613.6 4.1333L603.333 0.666631L345.333 0.533298C203.467 0.399964 84.3998 0.799964 80.6665 1.46663ZM221.2 222C260.667 229.6 303.867 256.533 336.4 294.4L341.333 300L346.267 294.4C372.133 264.4 409.733 237.6 440.4 227.467C459.733 221.067 471.6 219.6 497.333 220.4C524.267 221.2 540.667 224.267 559.333 231.6C578.533 239.2 588.8 245.867 602.267 259.333C612.933 270.133 615.2 273.333 621.067 285.467C630.8 305.6 632.667 314.8 632.667 341.333C632.667 367.867 630.8 377.067 621.067 397.2C615.2 409.333 612.933 412.533 602.267 423.333C588.8 436.8 578.533 443.467 559.333 451.067C540.667 458.4 524.267 461.467 497.333 462.267C471.6 463.067 459.733 461.6 440.4 455.2C409.733 445.067 372.133 418.267 346.267 388.267L341.333 382.667L336.4 388.267C310.533 418.267 272.933 445.067 242.267 455.2C222.933 461.6 211.067 463.067 185.333 462.267C158.4 461.467 142 458.4 123.333 451.067C104.133 443.467 93.8665 436.8 80.3998 423.333C69.7332 412.533 67.4665 409.333 61.5998 397.2C51.8665 377.067 49.9998 367.867 49.9998 341.333C49.9998 314.8 51.8665 305.6 61.5998 285.467C67.4665 273.333 69.7332 270.133 80.3998 259.333C100.933 238.667 124.933 227.467 159.867 222C176 219.467 207.867 219.467 221.2 222Z" fill="white"/>
<path d="M172.667 269.467C159.2 271.067 140 276.533 131.467 281.067C122.267 286 110.533 297.2 106.4 304.933C100.4 316 98.1333 326 98.1333 341.333C98.1333 356.667 100.4 366.667 106.4 377.733C110.533 385.467 122.267 396.667 131.467 401.6C146.667 409.867 181.467 416 202.133 414.133C213.333 413.067 227.467 409.467 238.267 404.667C248.8 399.867 269.467 385.867 280.533 375.733C292.267 365.067 310.667 344.133 310.667 341.333C310.667 340.267 305.6 333.467 299.333 326.4C275.067 298.667 247.467 279.333 221.333 272C209.467 268.667 188.267 267.6 172.667 269.467Z" fill="white"/>
<path d="M473.067 269.333C464.267 270.8 452.933 274.267 444.267 278.133C433.867 282.8 413.067 296.933 402.133 306.933C390.4 317.6 372 338.533 372 341.333C372 342.4 377.067 349.2 383.333 356.267C413.733 391.067 447.467 411.2 480.533 414.133C501.2 416 536 409.867 551.2 401.6C560.4 396.667 572.133 385.467 576.267 377.733C582.267 366.667 584.533 356.667 584.533 341.333C584.533 326 582.267 316 576.267 304.933C572.133 297.2 560.4 286 551.2 281.067C533.333 271.467 494.933 265.733 473.067 269.333Z" fill="white"/>
</svg>
