<svg width="683" height="683" viewBox="0 0 683 683" fill="none" xmlns="http://www.w3.org/2000/svg">
<path d="M154.4 29.3334C123.867 33.0667 94.4001 47.2001 71.7334 69.0667C48.1334 91.8667 33.2001 122.667 29.3334 156C27.4667 171.867 27.6001 396.4 29.4667 412.933C33.2001 446.8 49.4667 479.733 73.6001 502.133C90.0001 517.2 113.733 530.4 133.6 535.333L142.533 537.6L142.933 586.667L143.333 635.733L147.333 641.6C155.333 652.8 171.2 657.2 182.533 651.333C185.067 650 224 624.533 268.933 594.533L350.667 540H438.8C522.133 540 527.6 539.867 540.267 537.333C601.067 524.933 646.267 475.2 653.2 412.933C655.067 396.4 655.2 171.867 653.333 156C648 109.867 622.267 70.6667 582 47.0667C572 41.2001 555.867 34.8001 542.933 31.6001C531.333 28.8001 530.4 28.8001 347.333 28.5334C246.133 28.4001 159.333 28.8001 154.4 29.3334ZM524.667 202.267C527.6 203.733 531.333 206.533 532.933 208.267C542.933 218.933 542 238.133 531.2 248.267C522.4 256.533 534.267 256 341.333 256C185.2 256 164.667 255.733 160.267 253.867C149.733 249.467 142.667 239.2 142.667 228C142.667 214 150.133 204.133 164 199.867C165.867 199.333 246.533 198.933 343.333 199.067L519.333 199.333L524.667 202.267ZM466.4 315.333C486.667 323.867 489.333 351.733 470.933 364.667L465.067 368.667L344.267 369.067C260.8 369.333 221.867 369.067 218.4 368C198.8 362.4 192.933 334.667 208.267 320.4C216 313.2 210.933 313.467 341.067 313.333C446.8 313.333 462 313.6 466.4 315.333Z" fill="white"/>
</svg>
