<svg width="683" height="683" viewBox="0 0 683 683" fill="none" xmlns="http://www.w3.org/2000/svg">
<g clip-path="url(#clip0_340_18345)">
<path d="M462 0.800039C414.4 4.53337 372 14.4 330.4 31.2C320.267 35.3334 303.867 42 293.867 46C284 50 271.2 54.5334 265.6 55.8667C253.733 58.9334 232.267 61.3334 217.2 61.3334H206.667V66.6667C206.667 71.4667 207.6 72.8001 219.733 84.9334C234.8 100.133 243.2 113.467 249.333 131.6C260 163.733 257.733 195.067 242.133 225.733L234.8 240.133L240.267 245.067C243.2 247.733 247.467 253.067 249.6 256.933L253.6 264L258.4 261.467C277.467 252 299.333 255.467 314.133 270.267C317.733 273.867 321.867 279.333 323.2 282.4C326 288.667 326.533 288.933 332.4 285.733C344.133 279.6 362.667 279.733 375.467 286C384.667 290.533 395.067 301.867 398.533 311.333C400.133 315.467 401.333 319.867 401.333 321.2C401.333 322.533 401.733 325.467 402.133 327.733C403.067 332.667 405.467 333.333 436 337.6C452.4 339.867 464.533 340.4 515.6 340.933C584.667 341.733 586.133 341.467 596.933 331.6C605.733 323.467 608.4 317.467 609.067 303.6L609.6 292H546.133H482.533L479.333 288.667C474.667 284.133 474.8 276.267 479.467 271.867L482.933 268.667L574.4 268C677.067 267.2 671.2 267.867 678.133 257.333C682.267 251.067 683.467 243.333 681.333 236.8C679.6 231.333 674.533 224.8 670.133 222.267C668.133 221.067 650.933 220.533 605.733 220L544 219.333L540.533 215.867C535.6 210.933 535.6 203.867 540.4 198.933L544 195.333L593.067 194.667L642.267 194L647.6 190.4C661.2 181.333 661.2 160 647.6 150.933L642.267 147.333L593.067 146.667L544 146L540.533 142.533C535.733 137.733 535.733 130.267 540.533 125.467L544 122L581.067 121.333C616.133 120.667 618.267 120.533 622.667 117.733C634.933 110.133 637.067 91.6001 626.933 80.9334C620.533 74.1334 620.133 74.0001 581.067 73.3334L544 72.6667L540.4 69.0667C535.867 64.5334 535.6 57.0667 539.867 52.8C542.533 50.2667 544.533 50 566.4 49.3334C588.267 48.6667 590.533 48.2667 596 45.3334C613.6 35.6 613.6 11.8667 596 2.93337C590.133 3.91703e-05 590 3.91703e-05 528.667 0.266706C494.933 0.400039 464.933 0.666706 462 0.800039Z" fill="white"/>
<path d="M85.3335 47.3334C85.3335 53.6001 85.6002 58.6667 86.0002 58.6667C86.2668 58.6667 89.6002 57.4667 93.2002 56.0001C117.333 46.5334 155.733 47.3334 180.4 58.0001C182.4 58.8001 182.667 57.8667 182.667 47.4667V36.0001H134H85.3335V47.3334Z" fill="white"/>
<path d="M0 170.667V280H40.4H80.6667L73.3333 275.733C44 259.067 22.2667 229.2 15.0667 195.6C12.2667 182.533 12.4 156.667 15.2 144.933C21.6 118.667 36 94.5333 54.6667 78.8C60.8 73.6 61.3333 72.6667 61.3333 67.2V61.3333H30.6667H0V170.667Z" fill="white"/>
<path d="M114.667 75.3335C94.6666 79.8668 79.4666 88.2668 65.3333 102.533C46.9333 121.2 38.7999 140.267 37.5999 166.8C37.0666 179.467 37.4666 184.133 39.8666 193.467C45.3333 215.6 58.2666 235.2 75.7333 248L84.6666 254.533L85.3333 200.933L85.9999 147.333L90.1333 138.667C104.933 107.467 144.133 100.267 168.4 124.4C172 127.867 176.4 134.133 178.4 138.4L182 146L182.4 191.733C182.8 234.267 182.933 237.467 185.067 236.667C191.467 233.867 199.733 232 204.533 232C209.867 232 210.267 231.6 215.467 223.6C246.267 176.533 230.933 113.333 181.867 86.0001C162.4 75.0668 134.933 70.8001 114.667 75.3335Z" fill="white"/>
<path d="M122.4 137.333C116.4 140.533 112.533 145.867 110.8 153.467C109.867 157.2 109.333 212.133 109.333 307.467V455.6L105.867 459.2C101.2 463.733 94.8001 463.867 89.7334 459.467L86.0001 456.267L85.6001 380L85.3334 303.6L75.0667 304.533C57.2001 306.133 46.2667 313.2 39.7334 327.333C36.8001 333.733 36.6667 335.6 36.2667 372.667C35.3334 452.667 40.1334 498.133 54.5334 546C59.8667 563.733 64.8001 576.667 81.0667 616.667C91.2001 641.733 93.8667 650.933 96.2667 669.867L97.8667 682.667H207.467H317.2L318 676.4C321.2 648.933 324.4 638.667 344.533 589.333C372.267 521.2 379.467 474.133 378.4 367.333L378 323.333L374.667 317.333C366.4 302.533 344.267 301.2 334.533 314.8C330.8 320.133 329.6 332.4 329.467 366.933C329.333 382.533 328.8 393.067 327.867 395.2C326.933 397.067 324.267 399.467 321.867 400.667C318 402.533 316.933 402.533 312.8 400.8C310.267 399.733 307.6 397.733 306.8 396.267C305.867 394.4 305.333 378.267 305.333 349.067C305.333 324.667 304.667 302.267 304 299.467C300 281.867 279.067 274.667 265.333 286.133C257.467 292.8 257.467 292.933 256.533 344.267C256.133 373.067 255.2 392.8 254.267 395.2C252.133 400.8 245.467 403.333 239.467 400.8C236.933 399.733 234.267 397.733 233.467 396.267C232.533 394.4 232 374.267 232 335.067C232 280.933 231.733 276.267 229.467 271.2C222.667 256.133 205.067 251.467 192.933 261.467C183.067 269.6 183.467 267.067 182.933 334C182.667 369.733 181.867 394.933 181.067 396.4C178.933 400.4 171.6 402.8 166.8 401.2C158.267 398.267 158.667 404 158.667 273.067C158.667 160.133 158.533 153.733 156.133 148.667C153.333 142.533 148.933 138.133 143.6 136.133C137.733 133.867 127.867 134.533 122.4 137.333Z" fill="white"/>
</g>
<defs>
<clipPath id="clip0_340_18345">
<rect width="682.667" height="682.667" fill="white"/>
</clipPath>
</defs>
</svg>
