<svg width="683" height="683" viewBox="0 0 683 683" fill="none" xmlns="http://www.w3.org/2000/svg">
<path d="M71.8667 23.0666C67.2001 26.6666 66.6667 30.1332 66.6667 59.8666V89.3333H329.333H592V58.6666V27.8666L588.667 24.6666L585.467 21.3332H329.733C130.8 21.4666 73.4667 21.7332 71.8667 23.0666ZM108.533 47.3332C114.133 52.5333 113.2 61.3333 106.533 64.6666C101.333 67.4666 98.0001 67.1999 93.8667 63.4666C91.0667 61.0666 90.1334 59.1999 90.1334 55.3333C90.1334 45.4666 101.333 40.6666 108.533 47.3332ZM153.867 46.9332C158.933 51.5999 159.067 58.3999 154 63.3333C147.2 70.2666 136 65.3333 136 55.3333C136 45.5999 146.667 40.5332 153.867 46.9332ZM200.267 47.9999C203.6 51.4666 204.133 52.7999 203.467 56.3999C202.533 61.3333 197.2 66.6666 193.2 66.6666C182.8 66.6666 177.6 54.7999 184.8 47.4666C189.733 42.6666 195.067 42.9332 200.267 47.9999Z" fill="white"/>
<path d="M66.6667 180.667V249.333H131.067C203.333 249.333 205.067 249.467 214.8 258.267C225.6 268 226 269.6 226.4 307.6L226.8 341.333H250.133C275.6 341.333 280.267 340.267 282.667 333.867C283.467 331.867 284 305.6 284 270.8V211.067L287.467 207.467C293.067 202 302.4 203.6 305.333 210.533C306.267 213.067 306.667 233.2 306.4 276.667C306 338.133 306 339.467 303.067 344.8C301.467 347.733 297.733 352.4 294.8 355.067C286.533 362.533 279.467 364 251.067 364H226.667V395.067C226.667 429.333 225.867 434.133 218.667 442.933C216.4 445.6 211.6 449.333 207.733 451.2L200.8 454.667H133.733H66.6667V485.2C66.6667 515.733 66.6667 515.867 69.8667 519.6L73.0667 523.333L149.733 523.733L226.267 524L226.933 513.6C227.867 497.333 235.2 486.267 248.667 480.533C252.267 479.067 261.067 478.667 291.333 478.667H329.333L329.6 344.533L330 210.4L333.733 207.2C338.267 203.333 343.467 203.2 348 206.667L351.333 209.2L352 343.6L352.667 478L392 478.667C429.067 479.333 431.6 479.467 436.667 482.267C448.267 488.4 453.6 497.467 454.533 512.667L455.333 523.333L518 523.733C552.533 523.867 582 523.733 583.6 523.333C585.2 522.933 587.867 521.333 589.333 519.733C591.867 516.933 592 515.067 592 485.733V454.667H537.733C505.333 454.667 481.333 454.133 478.533 453.333C471.867 451.467 462.267 442.667 458.4 434.933C455.467 428.933 455.333 426.933 454.933 396.267L454.4 364H430.4C417.333 364 404 363.333 400.933 362.533C391.867 360.267 383.467 353.333 379.2 344.4L375.333 336.667L374.933 278C374.667 245.733 374.933 217.333 375.333 214.933C377.2 204.933 386.933 200.933 394.267 207.2L398 210.4L398.4 272.4L398.8 334.267L402.133 337.467C405.467 340.533 406.267 340.667 430 341.067L454.4 341.467L454.933 309.067C455.467 274.267 456 271.867 463.2 262.267C465.067 259.733 469.867 256 473.6 253.867L480.667 250L536.4 249.6L592 249.2V180.533V112H329.333H66.6667V180.667ZM514.933 138.4C522.667 142.267 531.467 151.867 533.333 158.533C534 161.2 534.667 176.133 534.667 191.733C534.667 220.133 534.667 220.133 531.333 223.333C527.2 227.6 521.333 227.6 516.4 223.467L512.667 220.267L512 192C511.333 164.267 511.333 163.733 508.133 161.2C505.067 158.8 500.533 158.667 340.8 158.667C208.267 158.8 176.267 159.067 174.4 160.533C170.133 163.733 169.333 169.333 169.333 194.4C169.2 220.533 168.933 222 163.067 225.067C158.4 227.6 154.667 226.933 150.533 222.8L146.667 218.933V192.4C146.667 177.2 147.333 163.733 148.133 160.667C151.6 148.533 162.267 138.533 174.8 136.133C178 135.467 254.533 135.067 344.667 135.067L508.667 135.333L514.933 138.4Z" fill="white"/>
<path d="M28.5334 273.333C21.2001 276.267 21.3334 274.533 21.3334 353.067V425.467L24.6667 428.667L27.8667 432H112.267C176.533 431.867 197.2 431.467 198.8 430.267C203.867 426.4 204 424.667 204 352.667C204 275.333 204.133 276.4 195.867 273.467C190.667 271.733 32.9334 271.6 28.5334 273.333ZM172.4 296.133C183.333 299.2 183.333 314.133 172.4 317.333C168.933 318.4 149.467 318.667 108.933 318.4L50.4001 318L47.2001 314.267C41.7334 307.867 43.4668 299.867 51.0668 296.667C56.5334 294.267 164.267 293.867 172.4 296.133ZM177.333 344.667C181.6 349.2 181.6 356.267 177.6 360.4L174.533 363.333L113.2 363.733L51.8668 364.133L48.0001 360.133C42.9334 355.067 42.6668 349.6 47.4668 344.8L51.0668 341.333H112.667H174.267L177.333 344.667ZM177.6 390.267C182 394.667 181.6 402.133 176.8 406.133L173.2 409.333H112.133H51.0668L47.4668 405.867C42.6668 401.067 42.9334 395.6 48.0001 390.533L51.8668 386.533L113.2 386.933L174.533 387.333L177.6 390.267Z" fill="white"/>
<path d="M486.667 272.933C485.6 273.333 483.334 274.933 481.734 276.4L478.667 279.067V352.267V425.467L482 428.667L485.2 432H569.734H654.267L657.467 428.533L660.667 425.067L661.067 355.6C661.334 307.2 661.067 284.4 660 280.933C657.334 271.733 659.467 272 569.067 272.133C524.8 272.133 487.734 272.533 486.667 272.933ZM580.934 297.467C588.134 299.733 595.734 306.267 599.334 313.467C604.267 323.067 604.934 330.933 601.6 340.667L598.934 348.667L606.8 355.733C615.867 364 620.534 371.333 624.134 382.8C628 395.333 627.2 403.2 621.467 407.6C619.867 408.8 606.667 409.2 570 409.333C526.8 409.333 520.267 409.067 517.6 407.2C512.934 404 511.734 399.6 513.334 390.4C515.734 375.067 525.734 358.8 536.667 352L541.2 349.2L538.667 343.6C535.6 336.8 535.2 323.2 537.867 316.8C540.267 311.067 548.667 301.733 553.734 299.2C561.6 295.067 570.934 294.533 580.934 297.467Z" fill="white"/>
<path d="M562 322C555.867 328 558.534 337.467 567.067 340.4C571.2 341.867 578.134 338 579.734 333.467C583.6 322.267 570.267 313.6 562 322Z" fill="white"/>
<path d="M558.134 365.867C550.934 368.533 543.867 374.533 540.267 381.067L537.2 386.667H569.2C586.934 386.667 601.334 386.4 601.334 386C601.334 381.6 591.6 371.067 584 367.333C577.867 364.133 564.667 363.467 558.134 365.867Z" fill="white"/>
<path d="M253.2 504.8L250 508.267L249.6 579.467C249.2 659.333 248.933 657.333 258.4 660C261.733 661.067 288.667 661.333 344.267 661.067L425.067 660.667L428.533 657.467L432 654.267V581.067V507.867L428.667 504.667L425.467 501.333H340.933H256.4L253.2 504.8ZM346.267 525.733C348 526.667 353.467 532.933 358.667 539.6L368 551.733L380.933 554.667C402.267 559.333 403.733 559.867 406.533 563.6C411.867 570.267 410.533 573.867 397.733 586.8L386.267 598.533L387.067 613.467C388 630.667 386.667 634.8 379.867 637.2C376.267 638.4 373.467 637.867 359.467 633.333C350.4 630.4 342 628 340.667 628C339.333 628 330.8 630.4 321.867 633.333C304.4 639.067 301.733 639.067 296.8 633.467C294.533 630.933 294.4 629.2 295.2 615.2L296 599.867L285.067 587.867C273.067 574.933 271.2 571.6 273.2 566.267C275.2 561.2 278.933 559.467 297.333 555.333L314 551.733L323.333 539.6C334.933 524.533 339.333 521.867 346.267 525.733Z" fill="white"/>
<path d="M335.467 561.333C328.267 570.667 324.933 573.067 315.867 574.8C311.6 575.6 308 576.933 308 577.733C308 578.4 310.4 581.6 313.333 584.8C318.533 590.533 318.667 590.8 318.667 600.533V610.533L328.267 607.2C340.133 603.2 341.2 603.2 353.333 607.333C358.667 609.2 363.333 610.667 363.733 610.667C364 610.667 363.867 606.8 363.333 602.133C362.267 592.533 363.733 588.533 370.533 582.133C372.8 579.867 374.667 577.733 374.667 577.333C374.667 576.933 370.667 575.733 365.733 574.667C356.267 572.933 356.4 573.067 344.4 558.933L340.667 554.533L335.467 561.333Z" fill="white"/>
</svg>
