<svg width="171" height="171" viewBox="0 0 171 171" fill="none" xmlns="http://www.w3.org/2000/svg">
<g clip-path="url(#clip0_336_18332)">
<path d="M57.8666 1.86666C57.4666 2.93332 57.3333 5.99999 57.6 8.79999L58 14L65.7333 14.4L73.4666 14.8L73.0666 20.2667C72.6666 25.6 72.4 25.8667 66.6666 27.3333C49.4666 31.7333 28.6666 48.2667 20.9333 63.3333C12 81.2 10.1333 103.467 16.2666 120.8C24.8 144.933 43.0666 161.733 67.4666 168C80.5333 171.333 90.1333 171.333 103.2 168C115.867 164.8 125.067 160 134.133 151.6C158.8 129.2 165.067 93.7333 149.733 63.3333C142 48.2667 121.2 31.7333 104 27.3333C98.2666 25.8667 98 25.6 97.6 20.2667L97.2 14.8L103.6 14.4L110 14V7.33332V0.666658L84.2666 0.266658C63.0666 -8.89227e-06 58.5333 0.266658 57.8666 1.86666ZM95.3333 40C128.667 45.4667 150.533 79.6 142 112.667C135.333 138.133 112 156 85.3333 156C58.6666 156 35.3333 138.133 28.6666 112.667C19.2 76.2667 46 40.5333 84 38.8C85.8666 38.8 90.9333 39.3333 95.3333 40Z" fill="#FFFAE7"/>
<path d="M84 71.1999V97.3333H110.667H137.333L136.533 91.5999C133.2 67.4666 114 47.9999 91.3333 45.7332L84 44.9332V71.1999Z" fill="#FFFAE7"/>
<path d="M60.8 51.8667C60.2666 52.5334 61.2 55.3334 62.8 58C65.0666 61.7334 66 62.4 67.4666 61.2C69.0666 59.8667 69.0666 59.0667 67.0666 55.6C64.4 51.2 62 49.7334 60.8 51.8667Z" fill="#FFFAE7"/>
<path d="M42.2667 69.8666C41.3333 72.1333 49.8667 78 52 76.6666C54.2667 75.2 53.4667 73.6 48.8 70.8C43.4667 67.4666 43.2 67.4666 42.2667 69.8666Z" fill="#FFFAE7"/>
<path d="M35.9999 96.6667V102.667H43.3333H50.6666V96.6667V90.6667H43.3333H35.9999V96.6667Z" fill="#FFFAE7"/>
<path d="M45.7333 117.467C43.0666 119.2 41.7333 120.933 42.2666 122.133C43.2 124.533 43.8666 124.533 49.0666 121.333C53.2 118.8 54.2666 115.867 51.2 115.2C50.5333 115.067 48.1333 116.133 45.7333 117.467Z" fill="#FFFAE7"/>
<path d="M123.2 116.267C122.133 118 127.6 123.067 129.733 122.267C132.8 121.333 132 118.667 128.133 116.8C125.2 115.2 123.867 115.067 123.2 116.267Z" fill="#FFFAE7"/>
<path d="M62.1333 135.6C60.2666 139.467 60.1333 140.667 61.6 141.467C62.8 142.267 64.2666 141.067 66.2666 137.733C67.8666 135.067 68.9333 132.4 68.5333 131.733C67.0666 129.333 64.4 130.933 62.1333 135.6Z" fill="#FFFAE7"/>
<path d="M107.467 131.867C106.933 132.533 107.867 135.333 109.467 138C111.733 141.733 112.667 142.4 114.133 141.2C115.733 139.867 115.6 139.067 113.467 135.467C110.533 130.933 108.667 129.867 107.467 131.867Z" fill="#FFFAE7"/>
<path d="M84 140.667V148H88.6667H93.3333V140.667V133.333H88.6667H84V140.667Z" fill="#FFFAE7"/>
<path d="M22.5333 29.0667C17.5999 33.4667 15.8666 42.9333 19.1999 47.2C21.1999 49.6 21.5999 49.3333 28.9333 42.9333C33.1999 39.3333 37.9999 34.8 39.7333 32.9333L42.7999 29.6L39.8666 27.4667C34.9333 24 27.3333 24.6667 22.5333 29.0667Z" fill="#FFFAE7"/>
</g>
<defs>
<clipPath id="clip0_336_18332">
<rect width="170.667" height="170.667" fill="white"/>
</clipPath>
</defs>
</svg>
