<svg width="683" height="683" viewBox="0 0 683 683" fill="none" xmlns="http://www.w3.org/2000/svg">
<g clip-path="url(#clip0_340_18352)">
<path d="M342.267 4.13318C326.134 7.86652 312.4 19.7332 308.533 33.0665C306.533 39.8665 306.4 53.4665 308.267 55.4665C308.8 55.8665 316 54.2665 324.534 51.8665C339.467 47.7332 340.134 47.3332 339.867 44.1332C339.334 36.7999 340 34.6665 344 32.6665C349.067 29.9999 352.4 30.1332 355.067 33.0665C359.2 37.5999 357.867 41.9999 350.134 49.7332C341.334 58.3999 339.334 64.1332 341.334 74.6665C342.134 78.6665 342.934 82.1332 343.334 82.3999C343.734 82.7999 350.134 81.3332 357.6 79.1999C370.134 75.5999 371.334 74.9332 371.467 71.9999C371.6 70.1332 371.734 67.5999 371.867 66.2665C371.867 64.9332 375.867 59.7332 380.533 54.7999C385.467 49.4665 389.6 43.7332 390.4 41.0665C393.067 31.3332 387.334 15.4665 378.8 9.33318C370 3.19985 355.334 1.06652 342.267 4.13318Z" fill="white"/>
<path d="M75.2001 78.5333C71.4667 80.1333 66.6667 86.4 66.6667 89.4666C66.6667 91.3333 67.6001 92 70.5334 92C72.6667 92 75.3334 92.4 76.4001 92.8C77.7334 93.2 78.8001 92.5333 79.3334 90.8C80.2667 87.4666 82.9334 87.2 85.3334 90C86.6667 91.6 86.1334 92.4 82.0001 94.8C77.7334 97.3333 74.6667 101.733 74.6667 105.467C74.6667 106.133 77.3334 106.667 80.6667 106.667C84.0001 106.667 86.6667 106.133 86.6667 105.333C86.6667 104.667 89.0667 102.8 92.0001 101.333C95.0667 99.7333 98.0001 97.0666 98.8001 95.0666C100.533 90.5333 98.2667 84.1333 94.0001 80.9333C90.1334 78.1333 79.3334 76.8 75.2001 78.5333Z" fill="white"/>
<path d="M360.533 87.8666C353.733 90 347.333 92 346.267 92.4C344.533 93.0666 344.8 95.0666 348.267 106.933C350.533 114.533 352.8 121.2 353.333 121.733C354.933 123.467 385.6 114.533 384.8 112.533C384.4 111.6 382.533 104.8 380.4 97.4666C377.733 87.7333 376.133 84 374.667 84.1333C373.6 84.1333 367.2 85.8666 360.533 87.8666Z" fill="white"/>
<path d="M557.334 102.133C553.334 103.2 548 105.733 545.467 107.733C537.467 114.133 535.467 117.867 534.934 127.6L534.267 136.4L538.134 135.467C553.867 131.6 556 130.533 556 126.8C556 122.267 558.267 120 562.8 120C566 120 568 122 568 125.467C568 126.133 565.6 129.333 562.534 132.667C557.867 137.733 557.067 139.333 557.067 144.8C557.067 153.467 558.267 154.133 568.534 151.333C576.534 149.2 577.334 148.667 577.334 145.333C577.334 142.933 579.334 139.6 583.334 135.2C590.667 127.333 591.867 122.4 588.267 114.533C585.2 107.467 581.867 104.4 575.067 101.867C568.667 99.5999 566.534 99.7332 557.334 102.133Z" fill="white"/>
<path d="M74.0001 110.667C73.7334 111.067 73.3334 113.733 73.0667 116.667L72.6667 122L79.0667 122.4C83.7334 122.667 85.3334 122.4 85.3334 120.933C85.3334 119.867 85.7334 117.2 86.1334 114.933C86.9334 111.067 86.8001 110.933 80.6667 110.4C77.2001 110.133 74.2667 110.267 74.0001 110.667Z" fill="white"/>
<path d="M208.8 125.467C195.733 127.333 184.4 134.4 177.6 144.667C173.733 150.533 168.667 167.2 170.133 169.6C170.533 170.133 178.8 170.667 188.533 170.667H206.267L207.2 165.6C208.133 159.6 211.2 156.4 217.067 155.2C223.2 154 228 157.467 228 163.067C228 168.267 224.933 171.6 216 176C205.467 181.2 202.267 185.6 200 197.2C197.733 209.2 198 209.333 216.133 209.333C227.733 209.333 232.267 208.933 232.533 207.6C234.8 199.067 235.733 197.867 242.667 193.733C260.533 183.467 265.067 178.267 266.267 166.4C268 149.333 258.133 134.533 240.8 128.133C232.4 125.067 219.067 124 208.8 125.467Z" fill="white"/>
<path d="M569.467 157.333C564.8 158.8 560.667 160.133 560.4 160.533C559.2 161.6 564.267 178.933 565.867 179.467C567.2 180 585.2 175.333 586 174.4C586.8 173.2 580.667 154.667 579.467 154.8C578.667 154.8 574.134 156 569.467 157.333Z" fill="white"/>
<path d="M418 171.2C413.733 173.067 409.333 178.4 409.333 181.733C409.333 182.933 411.333 183.867 414.933 184.4C419.467 185.067 420.8 184.667 422.667 182.267C424.667 179.867 425.333 179.733 427.067 181.2C429.333 183.067 428.667 186.667 426 186.667C423.2 186.667 418.8 191.067 418 194.8C417.2 198.133 417.467 198.4 422.667 198.933C426.933 199.333 428.533 198.933 429.467 197.067C430.133 195.733 432.133 194.4 434 193.867C440.4 192.267 443.867 184.933 441.333 178.667C439.6 174.4 430.667 169.333 425.2 169.333C423.467 169.467 420.133 170.267 418 171.2Z" fill="white"/>
<path d="M416 208.533V214.4L421.867 214.8C427.733 215.333 427.733 215.333 428.533 210.667C429.867 202.667 429.867 202.667 422.667 202.667H416V208.533Z" fill="white"/>
<path d="M197.333 237.333V254.667H216H234.667V237.333V220H216H197.333V237.333Z" fill="white"/>
<path d="M290.933 245.6C290.267 249.467 277.733 315.067 263.333 391.333C248.8 467.6 236.4 530.533 235.867 531.333C234.8 532.4 11.3334 566.4 3.33343 566.667C1.2001 566.667 1.06676 566.933 2.66676 567.867C3.73343 568.533 74.5334 594.133 160 624.8L315.333 680.4L455.067 661.733C532 651.333 595.2 642.533 595.6 642.133C596.667 641.067 682.667 278.133 682 277.6C681.733 277.333 596.667 268.8 493.067 258.667C389.467 248.533 301.867 239.867 298.533 239.333L292.4 238.667L290.933 245.6ZM477.867 284.667C568 295.2 642 304.133 642.4 304.533C642.933 305.2 571.333 610.533 570.267 611.467C569.733 612 260 524.4 259.067 523.467C258.533 522.933 303.867 284.4 307.6 268.267C308 266.4 309.333 265.333 311.2 265.333C312.8 265.333 387.867 274 477.867 284.667ZM240.667 616.533C263.467 624.133 281.067 630.667 280 631.067C278.933 631.467 268.667 632.8 257.333 634L236.667 636.267L199.067 621.867C178.267 614 161.6 607.333 162 606.933C162.933 606 195.2 601.6 197.333 602.133C198.4 602.4 218 608.933 240.667 616.533Z" fill="white"/>
<path d="M453.467 334.667C444 338.133 435.467 343.733 427.6 351.733L421.067 358.4L441.867 372.533L462.533 386.8L468 381.333C474.4 374.933 480.533 374.133 487.6 378.933C493.467 383.067 495.467 388.133 493.333 393.467C490.267 400.8 487.333 401.733 469.6 400.667C452.133 399.6 446.667 400.933 437.733 408.533C431.6 413.733 425.067 424 426.667 426C427.467 426.933 435.467 432.667 444.667 438.667L461.333 449.6L466 445.467C468.667 443.2 471.467 441.2 472.4 441.067C473.333 440.933 483.333 440.8 494.667 440.667C513.333 440.667 515.867 440.4 520.8 437.733C532.133 431.6 540.267 419.333 542.933 404.267C546.8 381.6 533.333 358.667 506.4 342.267C489.6 332.133 468.933 329.067 453.467 334.667Z" fill="white"/>
<path d="M400.8 455.467C393.6 466.133 388 475.067 388.133 475.2C390.8 477.467 429.6 502.8 429.867 502.4C440.8 487.2 456 463.467 455.2 462.8C452.133 460.133 415.867 436 415.067 436C414.4 436 408.133 444.8 400.8 455.467Z" fill="white"/>
<path d="M325.733 453.467C321.733 454.667 317.467 459.2 315.6 464.267C314.933 466.133 315.867 466.667 320.933 467.467C326.4 468.267 327.333 468 329.333 465.2C331.467 462.533 332 462.4 333.867 463.867C337.067 466.533 336.533 467.733 331.467 470.267C327.467 472.133 322.533 479.067 324.133 480.533C324.4 480.8 327.2 481.467 330.4 482C334.8 482.667 336 482.533 336 481.067C336 480 338.133 478.133 340.667 476.933C346.8 474 349.867 469.2 348.667 464.133C347.6 459.2 341.067 453.333 336.667 453.333C334.933 453.333 332.8 453.067 331.733 452.8C330.8 452.533 328.133 452.8 325.733 453.467Z" fill="white"/>
<path d="M322.4 491.333C322 496.933 322.133 497.333 325.333 497.333C327.2 497.333 329.867 497.733 331.467 498.133C333.867 498.8 334.4 498.133 335.2 493.2C336.267 486.667 335.067 485.333 327.867 485.333C322.933 485.333 322.933 485.467 322.4 491.333Z" fill="white"/>
<path d="M58.4 245.2C44.9334 249.6 34.6667 258.133 29.8667 268.933C27.6 273.866 26.4 293.466 28.1334 295.333C28.6667 295.733 36 294.133 44.5334 291.733L60 287.333V281.066C60 275.466 60.4 274.533 64 272.666C68.9334 270.133 72.5334 270.133 75.2 272.8C79.3334 276.8 77.8667 281.733 70 289.733C66 294 62.2667 298.8 61.8667 300.666C60.6667 305.2 61.8667 319.733 63.4667 321.333C64.2667 322.133 69.4667 321.333 78 318.8L91.3334 315.066L92 308.933C92.6667 303.733 93.8667 301.6 100.933 294.266C110 284.8 112.667 278.4 111.2 269.333C109.867 261.466 103.2 252.133 95.4667 247.333C89.6 243.866 87.6 243.333 77.4667 243.066C69.2 242.8 63.8667 243.333 58.4 245.2Z" fill="white"/>
<path d="M79.4667 328C72.2667 330.133 66 332.267 65.6 332.667C64.8 333.467 71.8667 360.133 73.3334 361.733C74 362.533 102.933 355.467 105.067 353.867C105.333 353.733 103.6 346.933 101.2 338.8C98 327.733 96.4 324 94.8 324.133C93.6 324.133 86.8 325.867 79.4667 328Z" fill="white"/>
<path d="M173.067 388.533C170.267 389.467 166.534 391.333 164.667 392.533C160.8 395.067 155.2 403.2 154 408.133C153.2 411.333 153.467 411.6 162.267 413.2C167.2 414.133 172.534 415.067 174 415.467C176 415.867 177.334 414.933 178.934 412C181.067 408.267 181.867 407.867 186.267 408.267C191.067 408.667 191.334 408.933 191.334 413.333C191.334 417.867 191.067 418.133 184 420.4C175.067 423.467 173.6 424.667 170.534 431.333C166.4 440.267 166.8 440.8 178.4 442.933L188.667 444.8L190.8 441.333C192.267 438.933 195.867 436.8 201.334 434.8C211.334 431.067 215.334 427.467 217.334 420.133C219.067 413.467 217.334 405.333 212.534 399.067C205.6 389.867 184.534 384.133 173.067 388.533Z" fill="white"/>
<path d="M57.3333 422.4C57.3333 425.2 56.9333 430.4 56.5333 433.867C55.7333 439.467 55.8667 440 58.2667 440C62 440 64.2667 443.067 63.7333 447.6C63.3333 450.8 62.6667 451.333 59.3333 451.333C55.8667 451.333 54.9333 450.4 52 444.667C48.5333 437.867 42.4 433.333 36.5333 433.333C33.2 433.333 32 436.4 32 446C32 451.733 32.4 452.933 35.0667 454C36.6667 454.8 39.7333 458.667 42 462.933C46.5333 471.733 51.4667 475.067 59.3333 474.933C71.3333 474.8 79.3333 466.8 81.7333 452.667C84.8 434.667 77.3333 422 61.0667 418C57.4667 417.067 57.3333 417.2 57.3333 422.4Z" fill="white"/>
<path d="M6.13333 430.8C5.86667 431.867 5.2 436.933 4.8 442.133L4 451.6L14.1333 452.533C19.7333 453.067 24.5333 453.2 24.8 453.067C25.0667 452.8 25.6 447.6 26.1333 441.6L27.0667 430.667H19.8667C15.8667 430.667 11.3333 430.267 9.73333 429.867C7.73333 429.333 6.53333 429.733 6.13333 430.8Z" fill="white"/>
<path d="M164.934 448.933C163.734 451.067 161.067 469.2 161.867 470.4C162.667 471.733 183.734 475.333 184.8 474.4C185.6 473.467 189.467 453.067 188.934 452.533C188.534 452 168.134 448 166.4 448C165.867 448 165.2 448.4 164.934 448.933Z" fill="white"/>
</g>
<defs>
<clipPath id="clip0_340_18352">
<rect width="682.667" height="682.667" fill="white"/>
</clipPath>
</defs>
</svg>
